<svg width="38" height="38" viewBox="0 0 38 38" fill="none" xmlns="http://www.w3.org/2000/svg">
<path opacity="0.9" d="M19.0233 0C8.53344 0 3.77656e-05 8.51443 3.77656e-05 18.975C3.77656e-05 29.4357 8.53509 37.9501 19.025 37.9501C29.4856 37.9501 38 29.4357 38 18.975C37.9984 8.51443 29.4856 0 19.0233 0ZM27.5506 19.8H19.8001V27.5023C19.8001 27.7295 19.4375 28.0501 18.9751 28.0501C18.5626 28.0501 18.1501 27.7295 18.1501 27.5023V19.8H10.5298C10.3026 19.8 9.90006 19.6581 9.90006 18.975C9.90006 18.5625 10.2706 18.15 10.4978 18.15H18.1501V10.5282C18.1501 10.301 18.6125 9.90002 19.025 9.90002C19.4842 9.90002 19.8001 10.2206 19.8001 10.4478L19.8308 18.15H27.5506C27.7778 18.15 28.1 18.5625 28.1 18.975C28.1 19.3875 27.7778 19.8 27.5506 19.8Z" fill="#C5C5C5"/>
</svg>
